<svg xmlns="http://www.w3.org/2000/svg" width="40" height="40" fill="none" viewBox="0 0 40 40"><path fill="#2FD887" d="M10 2.505a1.25 1.25 0 0 0-1.25 1.25V21.25a5 5 0 0 0 5 5H15v6.25a4.999 4.999 0 0 0 9.615 1.913c.25-.607.38-1.257.38-1.913v-6.25h1.255a5 5 0 0 0 5-5V3.755A1.25 1.25 0 0 0 30 2.505H10ZM28.75 17.5h-17.5V5.005h7.5V8.76a1.25 1.25 0 0 0 2.5 0V5.005h2.5v6.24a1.25 1.25 0 0 0 2.5 0v-6.24h2.5V17.5Zm-17.5 3.75V20h17.5v1.25a2.5 2.5 0 0 1-2.5 2.5h-2.505a1.25 1.25 0 0 0-1.25 1.25v7.5a2.497 2.497 0 1 1-4.995 0V25a1.25 1.25 0 0 0-1.25-1.25h-2.5a2.5 2.5 0 0 1-2.5-2.5Z"/></svg>