<svg xmlns="http://www.w3.org/2000/svg" width="24" height="24" fill="none" viewBox="0 0 24 24"><path fill="#626C7F" d="M12 1.5a.75.75 0 0 1 .75.75v1.5a.75.75 0 1 1-1.5 0v-1.5A.75.75 0 0 1 12 1.5Zm0 15a4.5 4.5 0 1 0 0-9 4.5 4.5 0 0 0 0 9Zm0-1.5a3 3 0 1 1 0-6 3 3 0 0 1 0 6Zm9.75-2.25a.75.75 0 1 0 0-1.5h-1.5a.75.75 0 1 0 0 1.5h1.5ZM12 19.5a.75.75 0 0 1 .75.75v1.5a.75.75 0 1 1-1.5 0v-1.5a.75.75 0 0 1 .75-.75Zm-8.25-6.75a.75.75 0 1 0 0-1.5h-1.5a.75.75 0 1 0 0 1.5h1.5Zm.969-8.031a.75.75 0 0 1 1.062 0l1.5 1.5a.751.751 0 0 1-1.062 1.062l-1.5-1.5a.75.75 0 0 1 0-1.062Zm1.062 14.562a.75.75 0 1 1-1.062-1.06l1.5-1.5a.75.75 0 1 1 1.062 1.06l-1.5 1.5Zm13.5-14.562a.75.75 0 0 0-1.062 0l-1.5 1.5a.751.751 0 0 0 1.062 1.062l1.5-1.5a.75.75 0 0 0 0-1.062Zm-1.062 14.562a.75.75 0 0 0 1.062-1.06l-1.5-1.5a.75.75 0 0 0-1.062 1.06l1.5 1.5Z"/></svg>